<!DOCTYPE svg PUBLIC "-//W3C//DTD SVG 1.1//EN" "http://www.w3.org/Graphics/SVG/1.1/DTD/svg11.dtd">
<!-- Uploaded to: SVG Repo, www.svgrepo.com, Transformed by: SVG Repo Mixer Tools -->
<svg fill="#ffffff" height="120px" width="120px" version="1.1" id="Layer_1" xmlns="http://www.w3.org/2000/svg" xmlns:xlink="http://www.w3.org/1999/xlink" viewBox="0 0 512.00 512.00" xml:space="preserve" stroke="#ffffff" stroke-width="0.00512">
<g id="SVGRepo_bgCarrier" stroke-width="0"/>
<g id="SVGRepo_tracerCarrier" stroke-linecap="round" stroke-linejoin="round"/>
<g id="SVGRepo_iconCarrier"> <g> <g> <path d="M256,0C153.612,0,70.312,83.299,70.312,185.688c0,49.027,18.934,95.274,53.313,130.219l2.729,2.769 c14.341,15.08,24.955,33.034,31.198,52.664c-7.363,4.805-12.243,13.11-12.243,22.538v26.646c0,13.992,10.74,25.518,24.41,26.779 v17.869c0,25.82,21.007,46.827,46.827,46.827h78.905c25.821,0,46.828-21.007,46.828-46.827v-17.869 c13.668-1.26,24.409-12.787,24.409-26.779v-26.646c0-9.428-4.88-17.733-12.242-22.537c6.221-19.562,16.785-37.463,31.051-52.51 l2.876-2.924c34.38-34.944,53.313-81.191,53.313-130.219C441.688,83.299,358.388,0,256,0z M295.452,481.582h-78.905 c-9.048,0-16.41-7.362-16.41-16.41v-17.749h111.725v17.749h0.001C311.863,474.22,304.501,481.582,295.452,481.582z M336.272,417.006H175.728v-19.61h160.544V417.006z M367.545,293.701l-0.757,0.754c-20.36,20.288-35.003,45.163-42.793,72.524 H188.005c-7.789-27.36-22.432-52.235-42.792-72.524l-0.731-0.727c-28.223-29.118-43.753-67.44-43.753-108.041 c0-85.616,69.654-155.271,155.271-155.271s155.27,69.654,155.27,155.271C411.27,226.276,395.751,264.587,367.545,293.701z"/> </g> </g> <g> <g> <path d="M256,138.363c-26.095,0-47.325,21.229-47.325,47.325s21.229,47.325,47.325,47.325s47.325-21.229,47.325-47.325 S282.095,138.363,256,138.363z M256,202.596c-9.323,0-16.908-7.585-16.908-16.908c0-9.323,7.585-16.908,16.908-16.908 c9.323,0,16.908,7.585,16.908,16.908C272.908,195.011,265.323,202.596,256,202.596z"/> </g> </g> <g> <g> <path d="M380.021,200.896v-30.417h-27.182v0c-2.456-15.697-8.653-30.169-17.644-42.479l19.254-19.254l-21.508-21.508 l-19.254,19.254c-12.309-8.99-26.781-15.187-42.479-17.644V61.668h-30.417v27.181c-15.697,2.456-30.169,8.653-42.479,17.644 l-19.254-19.254l-21.508,21.508L176.805,128c-8.99,12.31-15.188,26.781-17.644,42.479H131.98v30.417h27.181 c2.456,15.697,8.653,30.169,17.644,42.479l-19.254,19.254l21.508,21.508l19.254-19.254c12.309,8.99,26.781,15.187,42.479,17.644 v27.181h30.417v-27.181c15.697-2.456,30.17-8.653,42.479-17.644l19.254,19.254l21.508-21.508l-19.254-19.254 c8.991-12.31,15.187-26.781,17.644-42.479H380.021z M256,253.291c-37.276,0-67.603-30.327-67.603-67.603 s30.327-67.603,67.603-67.603c37.277,0,67.603,30.327,67.603,67.603S293.277,253.291,256,253.291z"/> </g> </g> </g>
</svg>